<svg width="19" height="22" viewBox="0 0 19 22" fill="none" xmlns="http://www.w3.org/2000/svg">
<path d="M7.125 1.15789H11.875C12.2029 1.15789 12.4688 0.898669 12.4688 0.578947C12.4688 0.259226 12.2029 0 11.875 0H7.125C6.7971 0 6.53125 0.259226 6.53125 0.578947C6.53125 0.898669 6.7971 1.15789 7.125 1.15789ZM16.6172 6.61556L18.2322 5.04084C18.4545 4.81653 18.4545 4.46083 18.2322 4.23645C18.0044 4.00648 17.6285 4.00012 17.3927 4.22225L15.7777 5.79697C14.103 4.35546 11.9096 3.47368 9.5 3.47368C7.09043 3.47368 4.89699 4.35546 3.22221 5.79704L1.60723 4.22232C1.37718 4.00556 1.01239 4.00556 0.782269 4.22232C0.546421 4.44444 0.539898 4.81095 0.7677 5.04091L2.38268 6.61563C0.904324 8.24859 0 10.3873 0 12.7368C0 17.8527 4.2533 22 9.5 22C14.7442 21.9941 18.994 17.8503 19 12.7368C19 10.3873 18.0957 8.24859 16.6172 6.61556ZM9.5 20.8421C4.90916 20.8421 1.1875 17.2132 1.1875 12.7368C1.1875 10.507 2.11183 8.4881 3.60628 7.02263C3.61222 7.01726 3.62041 7.01528 3.62614 7.0097C3.63201 7.00405 3.63375 6.99627 3.63926 6.99041C5.14219 5.53293 7.21284 4.63158 9.5 4.63158C11.7919 4.63426 13.8664 5.54035 15.3699 7.00398C15.3731 7.00716 15.3761 7.01013 15.3794 7.01331C16.8805 8.47926 17.8097 10.5021 17.8125 12.7368C17.8125 17.2132 14.0908 20.8421 9.5 20.8421ZM10.0938 11.1063V8.68421C10.0938 8.36449 9.8279 8.10526 9.5 8.10526C9.1721 8.10526 8.90625 8.36449 8.90625 8.68421V11.1063C8.21603 11.3455 7.71875 11.9817 7.71875 12.7368C7.71875 13.6961 8.51624 14.4737 9.5 14.4737C10.4838 14.4737 11.2812 13.6961 11.2812 12.7368C11.2812 11.9817 10.784 11.3455 10.0938 11.1063Z" fill="#E14817"/>
</svg>
