<svg width="21" height="28" viewBox="0 0 21 28" fill="none" xmlns="http://www.w3.org/2000/svg">
<path d="M1.76782 4.8297L0.11143 3.18305C-0.028282 3.04309 -0.0381906 2.80862 0.0906217 2.65576C0.15734 2.57737 0.250151 2.53656 0.343292 2.53656C0.425534 2.53656 0.508436 2.56806 0.575485 2.63357L1.65586 3.70926V0.371571C1.65586 0.166455 1.80911 0 2.00035 0C2.18927 0 2.34219 0.166097 2.34219 0.371571V3.70855L3.42422 2.63285C3.48928 2.56735 3.57384 2.53585 3.65608 2.53585C3.74922 2.53585 3.84203 2.57701 3.90974 2.65505C4.03822 2.8079 4.02798 3.04273 3.88893 3.18234L2.23188 4.82899C2.0674 4.99115 1.91051 4.96931 1.76782 4.8297ZM1.76782 6.17173L0.11143 7.81766C-0.028282 7.95548 -0.0381906 8.19246 0.0906217 8.34352C0.15734 8.4237 0.250151 8.46451 0.343292 8.46451C0.425534 8.46451 0.508436 8.43086 0.575485 8.36607L1.65586 7.29217V10.6274C1.65586 10.8325 1.80911 11 2.00035 11C2.18927 11 2.34219 10.8325 2.34219 10.6274V7.29217L3.42422 8.36607C3.48928 8.43086 3.57384 8.46451 3.65608 8.46451C3.74922 8.46451 3.84203 8.4237 3.90974 8.34352C4.03822 8.19246 4.02798 7.95548 3.88893 7.81766L2.23188 6.17173C2.0674 6.00921 1.91051 6.02997 1.76782 6.17173Z" fill="white"/>
<path d="M18.0775 11.2783C17.6275 11.2783 17.2096 11.4128 16.8596 11.6405C16.765 10.5208 15.8205 9.63513 14.6595 9.63513C14.1537 9.63513 13.6924 9.80925 13.3187 10.091C13.0085 9.25258 12.1986 8.64909 11.2411 8.64909C10.7986 8.64909 10.388 8.78057 10.0415 9.00121V6.185C10.0415 4.98022 9.04647 4 7.82309 4C6.59968 4 5.60463 4.98022 5.60463 6.185V15.4298L4.29663 14.3987C3.87075 14.0626 3.3369 13.9129 2.79709 13.9733C2.25279 14.0346 1.76772 14.3026 1.43042 14.727C0.898562 15.3963 0.855763 16.3258 1.32343 17.04L6.632 25.1421C6.75939 25.3372 6.82703 25.5637 6.82703 25.7964V27.5034C6.82703 27.7767 7.05491 27.9978 7.33649 27.9978C7.6181 27.9978 7.84597 27.7767 7.84597 27.5034V25.7964C7.84597 25.3754 7.72358 24.9659 7.49172 24.6119L2.18316 16.5098C1.94483 16.1457 1.96622 15.672 2.23738 15.3311C2.40555 15.1191 2.64635 14.9859 2.91501 14.9554C3.18268 14.926 3.44438 15.0008 3.65384 15.1664L5.60463 16.7044V17.8305C5.60463 18.1038 5.83247 18.3249 6.11409 18.3249C6.39567 18.3249 6.62354 18.1038 6.62354 17.8305V6.185C6.62354 5.52539 7.16186 4.98891 7.82309 4.98891C8.48429 4.98891 9.02261 5.52539 9.02261 6.185V10.8336V15.5764C9.02261 15.8497 9.25048 16.0709 9.53206 16.0709C9.81367 16.0709 10.0415 15.8497 10.0415 15.5764V10.8336C10.0415 10.1745 10.5798 9.63803 11.2411 9.63803C11.9023 9.63803 12.4406 10.1745 12.4406 10.8336V11.8201V16.1399C12.4406 16.4132 12.6685 16.6344 12.95 16.6344C13.2317 16.6344 13.4595 16.4132 13.4595 16.1399V11.8201C13.4595 11.1605 13.9978 10.624 14.6595 10.624C15.3207 10.624 15.8591 11.1605 15.8591 11.8201V13.4633V16.7034C15.8591 16.9767 16.0869 17.1979 16.3685 17.1979C16.6501 17.1979 16.878 16.9767 16.878 16.7034V13.4633C16.878 12.8037 17.4163 12.2673 18.0775 12.2673C18.7387 12.2673 19.2771 12.8037 19.2771 13.4633V19.0463C19.2771 20.2545 18.9537 21.4457 18.3422 22.4907L17.3307 24.2194C16.9501 24.8698 16.7491 25.61 16.7491 26.3604V27.5034C16.7491 27.7767 16.977 27.9978 17.2586 27.9978C17.5402 27.9978 17.7681 27.7767 17.7681 27.5034V26.3604C17.7681 25.781 17.9233 25.2092 18.2163 24.708L19.2278 22.9793C19.9268 21.7857 20.296 20.4254 20.296 19.0463V13.4633C20.296 12.2586 19.3009 11.2783 18.0775 11.2783Z" fill="white"/>
</svg>
