<svg width="13" height="21" viewBox="0 0 13 21" fill="none" xmlns="http://www.w3.org/2000/svg">
<path d="M11.8154 0.155426C10.8066 0.048676 9.79272 -0.00320397 8.77832 0.000153025C5.41504 0.000153025 3.3252 2.14169 3.3252 5.59V7.93082H0.5C0.223999 7.93063 0.000122212 8.15427 1.12355e-07 8.43027V12.2814C-0.000182988 12.5574 0.22345 12.7812 0.499451 12.7814H3.3252V20.5002C3.32501 20.7762 3.54865 21 3.82465 21.0002H7.80273C8.07874 21.0003 8.30255 20.7767 8.30273 20.5007V12.7814H11.1192C11.3704 12.7813 11.5827 12.595 11.6153 12.3459L12.1124 8.49527C12.1481 8.22159 11.9551 7.97073 11.6814 7.93503C11.6598 7.93222 11.6381 7.93082 11.6163 7.93082H8.30273V5.97183C8.30273 5.00211 8.49805 4.59683 9.71094 4.59683L11.75 4.59586C12.026 4.59598 12.2498 4.37241 12.25 4.09641V0.65152C12.2501 0.400544 12.0642 0.188385 11.8154 0.155426ZM11.25 3.59586L9.71094 3.59683C7.55273 3.59683 7.30273 4.9523 7.30273 5.97183V8.43088C7.30261 8.70682 7.52618 8.93069 7.80219 8.93082H11.0479L10.6797 11.7814H7.80273C7.52673 11.7813 7.30292 12.0049 7.30273 12.2809V20.0002H4.3252V12.2814C4.32538 12.0054 4.10175 11.7816 3.82581 11.7814H1V8.93082H3.8252C4.1012 8.931 4.32501 8.70737 4.3252 8.43137V5.59C4.3252 2.71597 5.99017 1.00015 8.77832 1.00015C9.78711 1.00015 10.6982 1.05484 11.25 1.10269V3.59586Z" fill="#E14817"/>
</svg>
