<svg width="21" height="20" viewBox="0 0 21 20" fill="none" xmlns="http://www.w3.org/2000/svg">
<g clip-path="url(#clip0_226_7933)">
<path fill-rule="evenodd" clip-rule="evenodd" d="M14.5148 1.79548C15.1308 1.80297 15.7411 1.91538 16.3189 2.12783C16.7379 2.28841 17.1184 2.5344 17.436 2.84997C17.7536 3.16554 18.0011 3.54369 18.1627 3.96008C18.3765 4.53427 18.4896 5.14063 18.4972 5.75281C18.5434 6.77098 18.5536 7.07621 18.5536 9.65359C18.5536 12.231 18.5439 12.5362 18.4972 13.5544C18.4896 14.1666 18.3765 14.7729 18.1627 15.3471C18.0011 15.7635 17.7536 16.1416 17.436 16.4572C17.1184 16.7728 16.7379 17.0188 16.3189 17.1794C15.7411 17.3918 15.1308 17.5042 14.5148 17.5117C13.4906 17.5577 13.1835 17.5678 10.5893 17.5678C7.99511 17.5678 7.68796 17.5581 6.66379 17.5117C6.04773 17.5042 5.43753 17.3918 4.85971 17.1794C4.44068 17.0188 4.06013 16.7728 3.74257 16.4572C3.425 16.1416 3.17745 15.7635 3.01584 15.3471C2.80206 14.7729 2.68893 14.1666 2.6814 13.5544C2.63514 12.5362 2.62496 12.231 2.62496 9.65359C2.62496 7.07621 2.63467 6.77098 2.6814 5.75281C2.68893 5.14063 2.80206 4.53427 3.01584 3.96008C3.17745 3.54369 3.425 3.16554 3.74257 2.84997C4.06013 2.5344 4.44068 2.28841 4.85971 2.12783C5.43753 1.91538 6.04773 1.80297 6.66379 1.79548C7.68842 1.74952 7.99557 1.7394 10.5893 1.7394C13.183 1.7394 13.4902 1.74906 14.5148 1.79548ZM6.58423 0.0579188C5.77796 0.0738547 4.98026 0.225553 4.22504 0.50656C3.57719 0.749114 2.9904 1.12922 2.50561 1.62035C2.01092 2.10226 1.62809 2.68568 1.38384 3.32987C1.10106 4.08033 0.948397 4.87302 0.932361 5.6742C0.886102 6.70295 0.875 7.033 0.875 9.65313C0.875 12.2733 0.886102 12.6033 0.933286 13.633C0.949323 14.4342 1.10198 15.2269 1.38477 15.9773C1.62874 16.6214 2.01126 17.2048 2.50561 17.6868C2.99067 18.1781 3.57778 18.5582 4.22597 18.8006C4.98118 19.0816 5.77889 19.2333 6.58515 19.2493C7.62134 19.2952 7.95209 19.3072 10.5902 19.3072C13.2283 19.3072 13.5591 19.2962 14.5953 19.2493C15.4015 19.2333 16.1992 19.0816 16.9545 18.8006C17.5996 18.5521 18.1854 18.1726 18.6745 17.6863C19.1635 17.2 19.5451 16.6176 19.7947 15.9764C20.0775 15.2259 20.2302 14.4333 20.2462 13.6321C20.2925 12.6033 20.3036 12.2733 20.3036 9.65313C20.3036 7.033 20.2925 6.70295 20.2453 5.67329C20.2293 4.8721 20.0766 4.07941 19.7938 3.32895C19.5498 2.68485 19.1673 2.10143 18.673 1.61943C18.1879 1.12819 17.6008 0.748076 16.9526 0.50564C16.1974 0.224633 15.3997 0.0729354 14.5934 0.0569995C13.5582 0.0110322 13.226 0 10.5893 0C7.95255 0 7.62042 0.0110321 6.58423 0.0579188Z" fill="#E14817" fill-opacity="0.8"/>
<path fill-rule="evenodd" clip-rule="evenodd" d="M7.81666 5.53074C6.9963 6.07543 6.35691 6.84963 5.97934 7.75542C5.60177 8.66122 5.50298 9.65793 5.69546 10.6195C5.88795 11.5811 6.36306 12.4644 7.06072 13.1576C7.75837 13.8509 8.64724 14.323 9.61492 14.5143C10.5826 14.7056 11.5856 14.6074 12.4972 14.2322C13.4087 13.857 14.1878 13.2216 14.7359 12.4065C15.2841 11.5913 15.5766 10.6329 15.5766 9.65243C15.5766 8.33772 15.0511 7.07686 14.1155 6.14722C13.18 5.21758 11.9112 4.69531 10.5881 4.69531C9.60149 4.69531 8.63702 4.98604 7.81666 5.53074ZM8.78914 12.3279C8.25664 11.9743 7.8416 11.4718 7.59652 10.8838C7.35144 10.2958 7.28731 9.64886 7.41225 9.02468C7.5372 8.40051 7.8456 7.82717 8.29845 7.37716C8.75131 6.92716 9.32828 6.6207 9.95641 6.49654C10.5845 6.37239 11.2356 6.43611 11.8273 6.67965C12.419 6.92319 12.9247 7.33561 13.2805 7.86476C13.6363 8.39391 13.8262 9.01602 13.8262 9.65243C13.8262 10.5058 13.4851 11.3243 12.8778 11.9277C12.2706 12.5311 11.4469 12.8701 10.5881 12.8701C9.9477 12.8701 9.32164 12.6814 8.78914 12.3279Z" fill="#E14817" fill-opacity="0.8"/>
<path fill-rule="evenodd" clip-rule="evenodd" d="M15.7751 5.65855C15.1313 5.65855 14.6094 5.13993 14.6094 4.50017C14.6094 3.86042 15.1313 3.3418 15.7751 3.3418C16.4189 3.3418 16.9408 3.86042 16.9408 4.50017C16.9408 5.13993 16.4189 5.65855 15.7751 5.65855Z" fill="#E14817" fill-opacity="0.8"/>
</g>
<defs>
<clipPath id="clip0_226_7933">
<rect width="19.4286" height="19.3072" fill="white" transform="translate(0.875)"/>
</clipPath>
</defs>
</svg>
