<svg width="23" height="22" viewBox="0 0 23 22" fill="none" xmlns="http://www.w3.org/2000/svg">
<path d="M5.3001 21.0002H1.1001C0.800098 21.0002 0.600098 20.8002 0.600098 20.5002V6.9002C0.600098 6.6002 0.800098 6.4002 1.1001 6.4002H5.4001C5.7001 6.4002 5.9001 6.6002 5.9001 6.9002V20.5002C5.8001 20.8002 5.6001 21.0002 5.3001 21.0002ZM1.6001 20.0002H4.9001V7.4002H1.6001V20.0002ZM22.5001 21.0002H17.6001C17.3001 21.0002 17.1001 20.8002 17.1001 20.5002V14.7002C17.1001 13.5002 16.8001 12.1002 15.2001 12.1002C14.1001 12.1002 13.6001 12.8002 13.3001 13.5002C13.2001 13.7002 13.2001 14.0002 13.2001 14.3002V20.6002C13.2001 20.9002 13.0001 21.1002 12.7001 21.1002H8.0001C7.9001 21.1002 7.7001 21.0002 7.6001 21.0002C7.5001 21.0002 7.5001 20.6002 7.5001 20.5002V6.9002C7.5001 6.8002 7.5001 6.6002 7.6001 6.5002C7.7001 6.5002 7.8001 6.4002 8.0001 6.4002H12.8001C13.1001 6.4002 13.3001 6.6002 13.3001 6.9002V7.5002C14.1001 6.8002 15.4001 6.2002 17.1001 6.2002C20.8001 6.2002 23.0001 8.8002 23.0001 12.9002V20.5002C23.0001 20.8002 22.8001 21.0002 22.5001 21.0002ZM18.1001 20.0002H22.0001V12.9002C22.0001 9.4002 20.2001 7.2002 17.1001 7.2002C14.8001 7.2002 13.5001 8.4002 13.3001 9.1002C13.2001 9.3002 13.0001 9.5002 12.7001 9.4002C12.5001 9.4002 12.3001 9.2002 12.3001 8.9002V7.4002H8.5001V20.0002H12.3001V14.2002C12.3001 13.8002 12.3001 13.4002 12.4001 13.0002C12.9001 11.7002 13.9001 11.0002 15.2001 11.0002C17.0001 11.0002 18.1001 12.3002 18.1001 14.6002V20.0002Z" fill="#E14817"/>
<path d="M22.5 21H17.6C17.3 21 17.1 20.8 17.1 20.5V14.7C17.1 13.5 16.8 12.1 15.2 12.1C14.1 12.1 13.6 12.8 13.3 13.5C13.2 13.7 13.2 14 13.2 14.3V20.6C13.2 20.9 13 21.1 12.7 21.1H8C7.9 21.1 7.7 21 7.6 21C7.5 21 7.5 20.6 7.5 20.5V6.9C7.5 6.8 7.5 6.6 7.6 6.5C7.7 6.5 7.8 6.4 8 6.4H12.8C13.1 6.4 13.3 6.6 13.3 6.9V7.5C14.1 6.8 15.4 6.2 17.1 6.2C20.8 6.2 23 8.8 23 12.9V20.5C23 20.8 22.8 21 22.5 21ZM18.1 20H22V12.9C22 9.4 20.2 7.2 17.1 7.2C14.8 7.2 13.5 8.4 13.3 9.1C13.2 9.3 13 9.5 12.7 9.4C12.5 9.4 12.3 9.2 12.3 8.9V7.4H8.5V20H12.3V14.2C12.3 13.8 12.3 13.4 12.4 13C12.9 11.7 13.9 11 15.2 11C17 11 18.1 12.3 18.1 14.6V20ZM3.1 5.7C1.3 5.7 0 4.5 0 2.9C0 1.2 1.3 0 3.1 0C4.9 0 6.1 1.2 6.2 2.8C6.2 4.5 4.9 5.7 3.1 5.7ZM3.1 1C1.8 1 1 1.7 1 2.9C1 4 1.8 4.8 3.1 4.8C4.4 4.8 5.2 4.1 5.2 2.9C5.2 1.7 4.4 1 3.1 1Z" fill="#E14817"/>
</svg>
