<svg width="93" height="33" viewBox="0 0 93 33" fill="none" xmlns="http://www.w3.org/2000/svg">
<path d="M28.7575 23.9388C27.2219 27.0222 24.683 29.4915 21.558 30.9406C18.433 32.3897 14.908 32.7325 11.5624 31.9125C8.21675 31.0926 5.24966 29.1588 3.14883 26.4289C1.04801 23.6991 -0.0615231 20.3357 0.00263399 16.8917C0.0667911 13.4477 1.30082 10.128 3.50185 7.47829C5.70289 4.8286 8.73995 3.00662 12.1138 2.31187C15.4876 1.61711 18.9974 2.09093 22.0663 3.65542C25.1351 5.21992 27.5803 7.78199 29 10.9205L22.0038 14.0851C21.3026 12.5348 20.0947 11.2692 18.5788 10.4964C17.0628 9.72356 15.3291 9.4895 13.6625 9.83269C11.9959 10.1759 10.4957 11.0759 9.40845 12.3848C8.3212 13.6936 7.71162 15.3335 7.67993 17.0347C7.64824 18.736 8.19632 20.3974 9.23407 21.7459C10.2718 23.0943 11.7375 24.0496 13.3901 24.4546C15.0428 24.8596 16.784 24.6903 18.3277 23.9745C19.8713 23.2587 21.1255 22.0389 21.884 20.5158L28.7575 23.9388Z" fill="#E14817"/>
<rect x="11.2358" y="13.2361" width="7.87651" height="7.87651" rx="1.68573" fill="#E14817"/>
<path d="M19.6374 14.4176C19.6374 15.2876 18.9321 15.9929 18.0621 15.9929C17.1921 15.9929 16.4868 15.2876 16.4868 14.4176C16.4868 13.5476 17.1921 12.8423 18.0621 12.8423C18.9321 12.8423 19.6374 13.5476 19.6374 14.4176Z" fill="white"/>
<path d="M42.6436 7.35938H48.3262C49.515 7.35938 50.5355 7.53841 51.3877 7.89648C52.2399 8.25456 52.8952 8.78451 53.3535 9.48633C53.8118 10.1882 54.041 11.0511 54.041 12.0752C54.041 12.8844 53.8978 13.5863 53.6113 14.1807C53.3249 14.7751 52.9202 15.2728 52.3975 15.6738C51.8818 16.0749 51.2731 16.39 50.5713 16.6191L49.6475 17.0918H44.6309L44.6094 14.7607H48.3584C48.9671 14.7607 49.472 14.6533 49.873 14.4385C50.2741 14.2236 50.5749 13.9264 50.7754 13.5469C50.9831 13.1673 51.0869 12.734 51.0869 12.2471C51.0869 11.7243 50.9867 11.2731 50.7861 10.8936C50.5856 10.5068 50.2812 10.2096 49.873 10.002C49.4648 9.79427 48.9492 9.69043 48.3262 9.69043H45.5977V23H42.6436V7.35938ZM51.4736 23L47.8535 15.9961L50.9795 15.9854L54.6426 22.8496V23H51.4736ZM62.8174 20.5293V15.1689C62.8174 14.7751 62.7493 14.4349 62.6133 14.1484C62.4772 13.862 62.2695 13.64 61.9902 13.4824C61.7109 13.3249 61.3564 13.2461 60.9268 13.2461C60.5472 13.2461 60.2142 13.3105 59.9277 13.4395C59.6484 13.5684 59.4336 13.751 59.2832 13.9873C59.1328 14.2165 59.0576 14.4814 59.0576 14.7822H56.2109C56.2109 14.3024 56.3255 13.8477 56.5547 13.418C56.7839 12.9811 57.1097 12.5944 57.5322 12.2578C57.9619 11.9141 58.474 11.6455 59.0684 11.4521C59.6699 11.2588 60.3431 11.1621 61.0879 11.1621C61.9688 11.1621 62.7529 11.3125 63.4404 11.6133C64.1351 11.9069 64.6794 12.3509 65.0732 12.9453C65.4743 13.5397 65.6748 14.2881 65.6748 15.1904V20.2607C65.6748 20.8408 65.7106 21.3385 65.7822 21.7539C65.861 22.1621 65.9756 22.5166 66.126 22.8174V23H63.2363C63.1003 22.7064 62.9964 22.334 62.9248 21.8828C62.8532 21.4245 62.8174 20.9733 62.8174 20.5293ZM63.2148 15.9209L63.2363 17.6074H61.4424C60.9984 17.6074 60.6081 17.654 60.2715 17.7471C59.9349 17.833 59.6592 17.9619 59.4443 18.1338C59.2295 18.2985 59.0684 18.499 58.9609 18.7354C58.8535 18.9645 58.7998 19.2259 58.7998 19.5195C58.7998 19.806 58.8643 20.0638 58.9932 20.293C59.1292 20.5221 59.3226 20.7048 59.5732 20.8408C59.8311 20.9697 60.1318 21.0342 60.4756 21.0342C60.9769 21.0342 61.4137 20.9339 61.7861 20.7334C62.1585 20.5257 62.4486 20.2751 62.6562 19.9814C62.8639 19.6878 62.9749 19.4085 62.9893 19.1436L63.8057 20.3682C63.7054 20.6618 63.555 20.9733 63.3545 21.3027C63.154 21.6322 62.8962 21.9401 62.5811 22.2266C62.266 22.513 61.8864 22.7493 61.4424 22.9355C60.9984 23.1217 60.4827 23.2148 59.8955 23.2148C59.1436 23.2148 58.4704 23.0645 57.876 22.7637C57.2816 22.4629 56.8125 22.0511 56.4688 21.5283C56.125 21.0055 55.9531 20.4111 55.9531 19.7451C55.9531 19.1292 56.0677 18.585 56.2969 18.1123C56.526 17.6396 56.8662 17.2422 57.3174 16.9199C57.7686 16.5905 58.3271 16.3434 58.9932 16.1787C59.6663 16.0068 60.4362 15.9209 61.3027 15.9209H63.2148ZM71.0137 13.8584V23H68.1777V11.377H70.8418L71.0137 13.8584ZM70.5625 16.7695H69.7246C69.7318 15.9245 69.8464 15.1582 70.0684 14.4707C70.2904 13.7832 70.6019 13.1924 71.0029 12.6982C71.4111 12.2041 71.8945 11.8245 72.4531 11.5596C73.0117 11.2946 73.6348 11.1621 74.3223 11.1621C74.8809 11.1621 75.3857 11.2409 75.8369 11.3984C76.2881 11.556 76.6748 11.8066 76.9971 12.1504C77.3265 12.4941 77.5771 12.9453 77.749 13.5039C77.9281 14.0553 78.0176 14.7357 78.0176 15.5449V23H75.1602V15.5234C75.1602 14.9935 75.0814 14.5745 74.9238 14.2666C74.7734 13.9587 74.5514 13.7402 74.2578 13.6113C73.9714 13.4824 73.6169 13.418 73.1943 13.418C72.7575 13.418 72.3743 13.5075 72.0449 13.6865C71.7227 13.8584 71.4505 14.0983 71.2285 14.4062C71.0137 14.7142 70.849 15.0687 70.7344 15.4697C70.6198 15.8708 70.5625 16.304 70.5625 16.7695ZM87.4814 27.4688V13.7188L87.8252 11.377H90.3389V27.4688H87.4814ZM80.0264 17.3066V17.0811C80.0264 16.193 80.1266 15.3874 80.3271 14.6641C80.5277 13.9336 80.8213 13.3105 81.208 12.7949C81.6019 12.2721 82.0817 11.8711 82.6475 11.5918C83.2132 11.3053 83.8613 11.1621 84.5918 11.1621C85.3079 11.1621 85.9274 11.3018 86.4502 11.5811C86.973 11.8604 87.417 12.2578 87.7822 12.7734C88.1475 13.2819 88.4375 13.887 88.6523 14.5889C88.8743 15.2907 89.0391 16.0677 89.1465 16.9199V17.5322C89.0391 18.3486 88.8743 19.1042 88.6523 19.7988C88.4375 20.4863 88.1475 21.0879 87.7822 21.6035C87.4242 22.112 86.9801 22.5094 86.4502 22.7959C85.9202 23.0752 85.2936 23.2148 84.5703 23.2148C83.847 23.2148 83.2025 23.068 82.6367 22.7744C82.0781 22.4736 81.6019 22.0583 81.208 21.5283C80.8213 20.9984 80.5277 20.3753 80.3271 19.6592C80.1266 18.9359 80.0264 18.1517 80.0264 17.3066ZM82.873 17.0811V17.3066C82.873 17.8151 82.916 18.2913 83.002 18.7354C83.0951 19.1722 83.2383 19.5589 83.4316 19.8955C83.625 20.2321 83.8721 20.4971 84.1729 20.6904C84.4808 20.8838 84.8532 20.9805 85.29 20.9805C85.8773 20.9805 86.3535 20.8516 86.7188 20.5938C87.0911 20.3359 87.3704 19.9886 87.5566 19.5518C87.75 19.1077 87.8753 18.6136 87.9326 18.0693V16.3936C87.8968 15.9567 87.8216 15.5557 87.707 15.1904C87.5924 14.8252 87.4313 14.5101 87.2236 14.2451C87.0231 13.9801 86.7653 13.7725 86.4502 13.6221C86.1351 13.4717 85.7555 13.3965 85.3115 13.3965C84.8747 13.3965 84.5023 13.4932 84.1943 13.6865C83.8864 13.8727 83.6357 14.1341 83.4424 14.4707C83.249 14.8073 83.1058 15.1976 83.0127 15.6416C82.9196 16.0856 82.873 16.5654 82.873 17.0811Z" fill="white"/>
</svg>
