<svg width="88" height="31" viewBox="0 0 88 31" fill="none" xmlns="http://www.w3.org/2000/svg">
<path d="M28.7575 21.9388C27.2219 25.0222 24.683 27.4915 21.558 28.9406C18.433 30.3897 14.908 30.7325 11.5624 29.9125C8.21675 29.0926 5.24966 27.1588 3.14883 24.4289C1.04801 21.6991 -0.0615231 18.3357 0.00263399 14.8917C0.0667911 11.4477 1.30082 8.12798 3.50185 5.47829C5.70289 2.8286 8.73995 1.00662 12.1138 0.311868C15.4876 -0.382886 18.9974 0.0909293 22.0663 1.65542C25.1351 3.21992 27.5803 5.78199 29 8.92046L22.0038 12.0851C21.3026 10.5348 20.0947 9.26919 18.5788 8.49637C17.0628 7.72356 15.3291 7.4895 13.6625 7.83269C11.9959 8.17588 10.4957 9.07589 9.40845 10.3848C8.3212 11.6936 7.71162 13.3335 7.67993 15.0347C7.64824 16.736 8.19632 18.3974 9.23407 19.7459C10.2718 21.0943 11.7375 22.0496 13.3901 22.4546C15.0428 22.8596 16.784 22.6903 18.3277 21.9745C19.8713 21.2587 21.1255 20.0389 21.884 18.5158L28.7575 21.9388Z" fill="#E14817"/>
<rect x="11.2358" y="11.2363" width="7.87651" height="7.87651" rx="1.68573" fill="#E14817"/>
<path d="M19.6374 12.4176C19.6374 13.2876 18.9321 13.9929 18.0621 13.9929C17.1921 13.9929 16.4868 13.2876 16.4868 12.4176C16.4868 11.5476 17.1921 10.8423 18.0621 10.8423C18.9321 10.8423 19.6374 11.5476 19.6374 12.4176Z" fill="white"/>
<path d="M38.4932 7.35938H44.1758C45.3646 7.35938 46.3851 7.53841 47.2373 7.89648C48.0895 8.25456 48.7448 8.78451 49.2031 9.48633C49.6615 10.1882 49.8906 11.0511 49.8906 12.0752C49.8906 12.8844 49.7474 13.5863 49.4609 14.1807C49.1745 14.7751 48.7699 15.2728 48.2471 15.6738C47.7314 16.0749 47.1227 16.39 46.4209 16.6191L45.4971 17.0918H40.4805L40.459 14.7607H44.208C44.8167 14.7607 45.3216 14.6533 45.7227 14.4385C46.1237 14.2236 46.4245 13.9264 46.625 13.5469C46.8327 13.1673 46.9365 12.734 46.9365 12.2471C46.9365 11.7243 46.8363 11.2731 46.6357 10.8936C46.4352 10.5068 46.1309 10.2096 45.7227 10.002C45.3145 9.79427 44.7988 9.69043 44.1758 9.69043H41.4473V23H38.4932V7.35938ZM47.3232 23L43.7031 15.9961L46.8291 15.9854L50.4922 22.8496V23H47.3232ZM58.667 20.5293V15.1689C58.667 14.7751 58.599 14.4349 58.4629 14.1484C58.3268 13.862 58.1191 13.64 57.8398 13.4824C57.5605 13.3249 57.2061 13.2461 56.7764 13.2461C56.3968 13.2461 56.0638 13.3105 55.7773 13.4395C55.498 13.5684 55.2832 13.751 55.1328 13.9873C54.9824 14.2165 54.9072 14.4814 54.9072 14.7822H52.0605C52.0605 14.3024 52.1751 13.8477 52.4043 13.418C52.6335 12.9811 52.9593 12.5944 53.3818 12.2578C53.8115 11.9141 54.3236 11.6455 54.918 11.4521C55.5195 11.2588 56.1927 11.1621 56.9375 11.1621C57.8184 11.1621 58.6025 11.3125 59.29 11.6133C59.9847 11.9069 60.529 12.3509 60.9229 12.9453C61.3239 13.5397 61.5244 14.2881 61.5244 15.1904V20.2607C61.5244 20.8408 61.5602 21.3385 61.6318 21.7539C61.7106 22.1621 61.8252 22.5166 61.9756 22.8174V23H59.0859C58.9499 22.7064 58.846 22.334 58.7744 21.8828C58.7028 21.4245 58.667 20.9733 58.667 20.5293ZM59.0645 15.9209L59.0859 17.6074H57.292C56.848 17.6074 56.4577 17.654 56.1211 17.7471C55.7845 17.833 55.5088 17.9619 55.2939 18.1338C55.0791 18.2985 54.918 18.499 54.8105 18.7354C54.7031 18.9645 54.6494 19.2259 54.6494 19.5195C54.6494 19.806 54.7139 20.0638 54.8428 20.293C54.9788 20.5221 55.1722 20.7048 55.4229 20.8408C55.6807 20.9697 55.9814 21.0342 56.3252 21.0342C56.8265 21.0342 57.2633 20.9339 57.6357 20.7334C58.0081 20.5257 58.2982 20.2751 58.5059 19.9814C58.7135 19.6878 58.8245 19.4085 58.8389 19.1436L59.6553 20.3682C59.555 20.6618 59.4046 20.9733 59.2041 21.3027C59.0036 21.6322 58.7458 21.9401 58.4307 22.2266C58.1156 22.513 57.736 22.7493 57.292 22.9355C56.848 23.1217 56.3324 23.2148 55.7451 23.2148C54.9932 23.2148 54.32 23.0645 53.7256 22.7637C53.1312 22.4629 52.6621 22.0511 52.3184 21.5283C51.9746 21.0055 51.8027 20.4111 51.8027 19.7451C51.8027 19.1292 51.9173 18.585 52.1465 18.1123C52.3757 17.6396 52.7158 17.2422 53.167 16.9199C53.6182 16.5905 54.1768 16.3434 54.8428 16.1787C55.516 16.0068 56.2858 15.9209 57.1523 15.9209H59.0645ZM66.8633 13.8584V23H64.0273V11.377H66.6914L66.8633 13.8584ZM66.4121 16.7695H65.5742C65.5814 15.9245 65.696 15.1582 65.918 14.4707C66.14 13.7832 66.4515 13.1924 66.8525 12.6982C67.2607 12.2041 67.7441 11.8245 68.3027 11.5596C68.8613 11.2946 69.4844 11.1621 70.1719 11.1621C70.7305 11.1621 71.2354 11.2409 71.6865 11.3984C72.1377 11.556 72.5244 11.8066 72.8467 12.1504C73.1761 12.4941 73.4268 12.9453 73.5986 13.5039C73.7777 14.0553 73.8672 14.7357 73.8672 15.5449V23H71.0098V15.5234C71.0098 14.9935 70.931 14.5745 70.7734 14.2666C70.623 13.9587 70.401 13.7402 70.1074 13.6113C69.821 13.4824 69.4665 13.418 69.0439 13.418C68.6071 13.418 68.224 13.5075 67.8945 13.6865C67.5723 13.8584 67.3001 14.0983 67.0781 14.4062C66.8633 14.7142 66.6986 15.0687 66.584 15.4697C66.4694 15.8708 66.4121 16.304 66.4121 16.7695ZM83.3311 27.4688V13.7188L83.6748 11.377H86.1885V27.4688H83.3311ZM75.876 17.3066V17.0811C75.876 16.193 75.9762 15.3874 76.1768 14.6641C76.3773 13.9336 76.6709 13.3105 77.0576 12.7949C77.4515 12.2721 77.9313 11.8711 78.4971 11.5918C79.0628 11.3053 79.7109 11.1621 80.4414 11.1621C81.1576 11.1621 81.777 11.3018 82.2998 11.5811C82.8226 11.8604 83.2666 12.2578 83.6318 12.7734C83.9971 13.2819 84.2871 13.887 84.502 14.5889C84.724 15.2907 84.8887 16.0677 84.9961 16.9199V17.5322C84.8887 18.3486 84.724 19.1042 84.502 19.7988C84.2871 20.4863 83.9971 21.0879 83.6318 21.6035C83.2738 22.112 82.8298 22.5094 82.2998 22.7959C81.7699 23.0752 81.1432 23.2148 80.4199 23.2148C79.6966 23.2148 79.0521 23.068 78.4863 22.7744C77.9277 22.4736 77.4515 22.0583 77.0576 21.5283C76.6709 20.9984 76.3773 20.3753 76.1768 19.6592C75.9762 18.9359 75.876 18.1517 75.876 17.3066ZM78.7227 17.0811V17.3066C78.7227 17.8151 78.7656 18.2913 78.8516 18.7354C78.9447 19.1722 79.0879 19.5589 79.2812 19.8955C79.4746 20.2321 79.7217 20.4971 80.0225 20.6904C80.3304 20.8838 80.7028 20.9805 81.1396 20.9805C81.7269 20.9805 82.2031 20.8516 82.5684 20.5938C82.9408 20.3359 83.2201 19.9886 83.4062 19.5518C83.5996 19.1077 83.7249 18.6136 83.7822 18.0693V16.3936C83.7464 15.9567 83.6712 15.5557 83.5566 15.1904C83.4421 14.8252 83.2809 14.5101 83.0732 14.2451C82.8727 13.9801 82.6149 13.7725 82.2998 13.6221C81.9847 13.4717 81.6051 13.3965 81.1611 13.3965C80.7243 13.3965 80.3519 13.4932 80.0439 13.6865C79.736 13.8727 79.4854 14.1341 79.292 14.4707C79.0986 14.8073 78.9554 15.1976 78.8623 15.6416C78.7692 16.0856 78.7227 16.5654 78.7227 17.0811Z" fill="black"/>
</svg>
