<svg width="32" height="33" viewBox="0 0 32 33" fill="none" xmlns="http://www.w3.org/2000/svg">
<path fill-rule="evenodd" clip-rule="evenodd" d="M26 3.17432H6C4.34315 3.17432 3 4.51746 3 6.17432V26.1743C3 27.8312 4.34315 29.1743 6 29.1743H26C27.6569 29.1743 29 27.8312 29 26.1743V6.17432C29 4.51746 27.6569 3.17432 26 3.17432ZM6 2.17432C3.79086 2.17432 2 3.96518 2 6.17432V26.1743C2 28.3835 3.79086 30.1743 6 30.1743H26C28.2091 30.1743 30 28.3835 30 26.1743V6.17432C30 3.96518 28.2091 2.17432 26 2.17432H6Z" fill="#87888B"/>
<path d="M23.5 13.4243H8.5C8.15833 13.4243 7.875 13.141 7.875 12.7993C7.875 12.4576 8.15833 12.1743 8.5 12.1743H23.5C23.8417 12.1743 24.125 12.4576 24.125 12.7993C24.125 13.141 23.8417 13.4243 23.5 13.4243Z" fill="white"/>
<path d="M23.5 19.4243H8.5C8.15833 19.4243 7.875 19.141 7.875 18.7993C7.875 18.4576 8.15833 18.1743 8.5 18.1743H23.5C23.8417 18.1743 24.125 18.4576 24.125 18.7993C24.125 19.141 23.8417 19.4243 23.5 19.4243Z" fill="white"/>
</svg>
