<svg width="19" height="17" viewBox="0 0 19 17" fill="none" xmlns="http://www.w3.org/2000/svg">
<path d="M10.2848 9.27205C11.5965 9.27205 12.6598 10.3099 12.6598 11.5901L12.6585 12.7465C12.8214 15.5846 10.5818 17 6.42852 17C2.2887 17 0 15.6032 0 12.787V11.5901C0 10.3099 1.0633 9.27205 2.37496 9.27205H10.2848ZM16.619 9.27205C17.9306 9.27205 18.9939 10.3099 18.9939 11.5901L18.9927 12.4038C19.1359 14.9497 17.157 16.2261 13.5398 16.2261C13.0488 16.2261 12.5872 16.2027 12.1561 16.156C12.6163 15.7428 12.9591 15.2496 13.1775 14.6767L13.5398 14.6807C16.3647 14.6807 17.4941 13.9523 17.4106 12.4461V11.5901C17.4106 11.1633 17.0562 10.8174 16.619 10.8174L13.3516 10.8174C13.1914 10.2096 12.8464 9.67411 12.3786 9.27141L16.619 9.27205ZM10.2848 10.8174H2.37496C1.93774 10.8174 1.5833 11.1633 1.5833 11.5901V12.787C1.5833 14.558 3.05252 15.4547 6.42852 15.4547C9.79111 15.4547 11.1779 14.5783 11.0765 12.7897V11.5901C11.0765 11.1633 10.722 10.8174 10.2848 10.8174ZM6.33322 0C8.51966 0 10.2921 1.72996 10.2921 3.86398C10.2921 5.99799 8.51966 7.72796 6.33322 7.72796C4.14678 7.72796 2.37431 5.99799 2.37431 3.86398C2.37431 1.72996 4.14678 0 6.33322 0ZM14.2497 1.54534C15.9986 1.54534 17.4163 2.92909 17.4163 4.63602C17.4163 6.34296 15.9986 7.7267 14.2497 7.7267C12.5009 7.7267 11.0831 6.34296 11.0831 4.63602C11.0831 2.92909 12.5009 1.54534 14.2497 1.54534ZM6.33322 1.54534C5.02121 1.54534 3.95762 2.58343 3.95762 3.86398C3.95762 5.14453 5.02121 6.18262 6.33322 6.18262C7.64522 6.18262 8.70881 5.14453 8.70881 3.86398C8.70881 2.58343 7.64522 1.54534 6.33322 1.54534ZM14.2497 3.09068C13.3753 3.09068 12.6664 3.78255 12.6664 4.63602C12.6664 5.48949 13.3753 6.18136 14.2497 6.18136C15.1242 6.18136 15.833 5.48949 15.833 4.63602C15.833 3.78255 15.1242 3.09068 14.2497 3.09068Z" fill="#E24717"/>
</svg>
