<svg width="16" height="15" viewBox="0 0 16 15" fill="none" xmlns="http://www.w3.org/2000/svg">
<path d="M2.89225 10.2148L1.15521 7.97684C1.05379 7.84623 0.999221 7.68532 1.00027 7.51996C1.00131 7.3546 1.05791 7.1944 1.16097 7.06508L2.84396 4.95612M1.28422 7.51844L10.195 7.52997M5.80053 13.1433C6.78174 13.6681 7.88198 13.9302 8.99441 13.9042C10.1068 13.8783 11.1937 13.5651 12.1493 12.9951C13.105 12.4252 13.897 11.6177 14.4485 10.6513C15 9.68486 15.2922 8.59223 15.2968 7.47951C15.3014 6.36679 15.0182 5.27179 14.4746 4.30085C13.9311 3.32991 13.1457 2.51602 12.1947 1.93821C11.2438 1.3604 10.1596 1.03831 9.0474 1.00321C7.93522 0.968116 6.83287 1.22121 5.84738 1.73791" stroke="#E14817" stroke-width="0.9" stroke-miterlimit="10" stroke-linecap="square"/>
</svg>
