<svg width="16" height="15" viewBox="0 0 16 15" fill="none" xmlns="http://www.w3.org/2000/svg">
<path d="M13.4046 10.2148L15.1417 7.97684C15.2431 7.84623 15.2977 7.68532 15.2966 7.51996C15.2956 7.3546 15.239 7.1944 15.1359 7.06508L13.4529 4.95612M15.0127 7.51844L6.10184 7.52997M10.4963 13.1433C9.51513 13.6681 8.41489 13.9302 7.30247 13.9042C6.19004 13.8783 5.10322 13.5651 4.14756 12.9951C3.1919 12.4252 2.39986 11.6177 1.84835 10.6513C1.29685 9.68486 1.00463 8.59223 1.00005 7.47951C0.995484 6.36679 1.27872 5.27179 1.82227 4.30085C2.36581 3.32991 3.15119 2.51602 4.10214 1.93821C5.05309 1.3604 6.1373 1.03831 7.24947 1.00321C8.36165 0.968116 9.464 1.22121 10.4495 1.73791" stroke="#E14817" stroke-width="0.9" stroke-miterlimit="10" stroke-linecap="square"/>
</svg>
