<svg width="48" height="48" viewBox="0 0 48 48" fill="none" xmlns="http://www.w3.org/2000/svg">
<circle cx="24" cy="24" r="24" fill="#FEF6EE"/>
<g clip-path="url(#clip0_216_10016)">
<path d="M17.25 23.3999C17.7038 23.3999 18.1146 23.2178 18.4181 22.9254L20.0832 23.7579C20.0748 23.8257 20.0625 23.8924 20.0625 23.9624C20.0625 24.8929 20.8195 25.6499 21.75 25.6499C22.6805 25.6499 23.4375 24.8929 23.4375 23.9624C23.4375 23.7027 23.3736 23.4595 23.2683 23.2395L25.5271 20.9807C25.7471 21.086 25.9903 21.1499 26.25 21.1499C27.1805 21.1499 27.9375 20.3929 27.9375 19.4624C27.9375 19.2872 27.9031 19.1215 27.8533 18.9626L29.8159 17.491C30.0836 17.6699 30.4046 17.7749 30.75 17.7749C31.6805 17.7749 32.4375 17.0179 32.4375 16.0874C32.4375 15.1569 31.6805 14.3999 30.75 14.3999C29.8195 14.3999 29.0625 15.1569 29.0625 16.0874C29.0625 16.2626 29.0969 16.4283 29.1467 16.5872L27.1841 18.0588C26.9164 17.8799 26.5954 17.7749 26.25 17.7749C25.3195 17.7749 24.5625 18.5319 24.5625 19.4624C24.5625 19.7221 24.6264 19.9653 24.7317 20.1853L22.4729 22.4441C22.2529 22.3388 22.0097 22.2749 21.75 22.2749C21.2962 22.2749 20.8854 22.457 20.5819 22.7494L18.9168 21.9169C18.9252 21.8491 18.9375 21.7824 18.9375 21.7124C18.9375 20.7819 18.1805 20.0249 17.25 20.0249C16.3195 20.0249 15.5625 20.7819 15.5625 21.7124C15.5625 22.6429 16.3195 23.3999 17.25 23.3999Z" fill="#F49C4E"/>
<path d="M33.0374 32.4749H32.4374V20.5874C32.4374 20.2766 32.1857 20.0249 31.8749 20.0249H29.6249C29.3141 20.0249 29.0624 20.2766 29.0624 20.5874V32.4749H27.9374V23.9624C27.9374 23.6516 27.6857 23.3999 27.3749 23.3999H25.1249C24.8141 23.3999 24.5624 23.6516 24.5624 23.9624V32.4749H23.4374V28.4624C23.4374 28.1516 23.1857 27.8999 22.8749 27.8999H20.6249C20.3141 27.8999 20.0624 28.1516 20.0624 28.4624V32.4749H18.9374V26.2124C18.9374 25.9016 18.6857 25.6499 18.3749 25.6499H16.1249C15.8141 25.6499 15.5624 25.9016 15.5624 26.2124V32.4749H14.9624C14.6516 32.4749 14.3999 32.7266 14.3999 33.0374C14.3999 33.3482 14.6516 33.5999 14.9624 33.5999H33.0374C33.3482 33.5999 33.5999 33.3482 33.5999 33.0374C33.5999 32.7266 33.3482 32.4749 33.0374 32.4749Z" fill="#F49C4E"/>
</g>
<defs>
<clipPath id="clip0_216_10016">
<rect width="19.2" height="19.2" fill="white" transform="translate(14.3999 14.3999)"/>
</clipPath>
</defs>
</svg>
