<svg width="48" height="48" viewBox="0 0 48 48" fill="none" xmlns="http://www.w3.org/2000/svg">
<circle cx="24" cy="24" r="24" fill="#E8FAFA"/>
<path d="M27.0855 23.6569C27.843 23.6569 28.457 23.0429 28.457 22.2855C28.457 21.5281 27.843 20.9141 27.0855 20.9141C26.3281 20.9141 25.7141 21.5281 25.7141 22.2855C25.7141 23.0429 26.3281 23.6569 27.0855 23.6569Z" fill="#23CEC9"/>
<path d="M33.5999 15.4285C33.5999 15.1557 33.4915 14.8941 33.2986 14.7012C33.1057 14.5083 32.8441 14.3999 32.5713 14.3999H20.5713V33.5999H32.5713C32.8441 33.5999 33.1057 33.4915 33.2986 33.2986C33.4915 33.1057 33.5999 32.8441 33.5999 32.5713V15.4285ZM27.0856 29.1428C26.0684 29.1428 25.0741 28.8411 24.2284 28.276C23.3826 27.7109 22.7234 26.9077 22.3342 25.968C21.9449 25.0283 21.8431 23.9942 22.0415 22.9966C22.24 21.999 22.7298 21.0826 23.449 20.3634C24.1683 19.6441 25.0846 19.1543 26.0823 18.9559C27.0799 18.7574 28.1139 18.8593 29.0537 19.2485C29.9934 19.6378 30.7966 20.2969 31.3617 21.1427C31.9268 21.9884 32.2284 22.9827 32.2284 23.9999C32.2269 25.3634 31.6846 26.6706 30.7204 27.6347C29.7563 28.5989 28.4491 29.1412 27.0856 29.1428Z" fill="#23CEC9"/>
<path d="M27.0857 19.543C26.239 19.5421 25.4096 19.7825 24.6947 20.2361C23.9798 20.6898 23.409 21.3377 23.0492 22.1041C22.6894 22.8706 22.5554 23.7237 22.6631 24.5635C22.7708 25.4033 23.1156 26.195 23.6571 26.8458V26.0573C23.658 25.5008 23.8519 24.9619 24.2058 24.5324C24.5597 24.103 25.0517 23.8097 25.5977 23.7025C25.3196 23.4112 25.1331 23.0446 25.0614 22.6482C24.9897 22.2518 25.036 21.8431 25.1944 21.4728C25.3529 21.1025 25.6166 20.7868 25.9528 20.565C26.289 20.3432 26.6829 20.2249 27.0857 20.2249C27.4885 20.2249 27.8824 20.3432 28.2186 20.565C28.5549 20.7868 28.8185 21.1025 28.977 21.4728C29.1354 21.8431 29.1817 22.2518 29.11 22.6482C29.0383 23.0446 28.8518 23.4112 28.5737 23.7025C29.1198 23.8097 29.6117 24.103 29.9656 24.5324C30.3195 24.9619 30.5134 25.5008 30.5143 26.0573V26.8458C31.0558 26.195 31.4006 25.4033 31.5083 24.5635C31.616 23.7237 31.482 22.8706 31.1222 22.1041C30.7624 21.3377 30.1916 20.6898 29.4767 20.2361C28.7618 19.7825 27.9324 19.5421 27.0857 19.543V19.543Z" fill="#23CEC9"/>
<path d="M28.1142 24.3428H26.0571C25.6026 24.3433 25.1669 24.5241 24.8455 24.8455C24.5241 25.1669 24.3433 25.6026 24.3428 26.0571V27.506C25.1243 28.122 26.0905 28.457 27.0856 28.457C28.0808 28.457 29.0469 28.122 29.8285 27.506V26.0571C29.8279 25.6026 29.6472 25.1669 29.3258 24.8455C29.0044 24.5241 28.5687 24.3433 28.1142 24.3428V24.3428Z" fill="#23CEC9"/>
<path d="M17.8285 21.9428C17.8285 21.7609 17.7562 21.5865 17.6276 21.4579C17.499 21.3293 17.3246 21.2571 17.1428 21.2571H15.0856C14.9038 21.2571 14.7293 21.3293 14.6007 21.4579C14.4721 21.5865 14.3999 21.7609 14.3999 21.9428C14.3999 22.1247 14.4721 22.2991 14.6007 22.4277C14.7293 22.5563 14.9038 22.6285 15.0856 22.6285H17.1428C17.3246 22.6285 17.499 22.5563 17.6276 22.4277C17.7562 22.2991 17.8285 22.1247 17.8285 21.9428Z" fill="#23CEC9"/>
<path d="M16.457 15.4285V16.457H17.1427C17.5065 16.457 17.8553 16.6015 18.1125 16.8587C18.3697 17.1159 18.5142 17.4647 18.5142 17.8285C18.5142 18.1922 18.3697 18.541 18.1125 18.7982C17.8553 19.0554 17.5065 19.1999 17.1427 19.1999H16.457V20.5713H17.1427C17.5065 20.5713 17.8553 20.7158 18.1125 20.973C18.3697 21.2302 18.5142 21.579 18.5142 21.9428C18.5142 22.3065 18.3697 22.6553 18.1125 22.9125C17.8553 23.1697 17.5065 23.3142 17.1427 23.3142H16.457V25.0285H17.1427C17.5065 25.0285 17.8553 25.173 18.1125 25.4302C18.3697 25.6873 18.5142 26.0362 18.5142 26.3999C18.5142 26.7636 18.3697 27.1125 18.1125 27.3696C17.8553 27.6268 17.5065 27.7713 17.1427 27.7713H16.457V29.1428H17.1427C17.5065 29.1428 17.8553 29.2872 18.1125 29.5444C18.3697 29.8016 18.5142 30.1505 18.5142 30.5142C18.5142 30.8779 18.3697 31.2267 18.1125 31.4839C17.8553 31.7411 17.5065 31.8856 17.1427 31.8856H16.457V32.5713C16.457 32.8441 16.5654 33.1057 16.7583 33.2986C16.9512 33.4915 17.2128 33.5999 17.4856 33.5999H19.8856V14.3999H17.4856C17.2128 14.3999 16.9512 14.5083 16.7583 14.7012C16.5654 14.8941 16.457 15.1557 16.457 15.4285V15.4285Z" fill="#23CEC9"/>
<path d="M15.0856 18.5143H17.1428C17.3246 18.5143 17.499 18.442 17.6276 18.3134C17.7562 18.1848 17.8285 18.0104 17.8285 17.8285C17.8285 17.6467 17.7562 17.4723 17.6276 17.3437C17.499 17.2151 17.3246 17.1428 17.1428 17.1428H15.0856C14.9038 17.1428 14.7293 17.2151 14.6007 17.3437C14.4721 17.4723 14.3999 17.6467 14.3999 17.8285C14.3999 18.0104 14.4721 18.1848 14.6007 18.3134C14.7293 18.442 14.9038 18.5143 15.0856 18.5143V18.5143Z" fill="#23CEC9"/>
<path d="M17.8285 26.4001C17.8285 26.2182 17.7562 26.0438 17.6276 25.9152C17.499 25.7866 17.3246 25.7144 17.1428 25.7144H15.0856C14.9038 25.7144 14.7293 25.7866 14.6007 25.9152C14.4721 26.0438 14.3999 26.2182 14.3999 26.4001C14.3999 26.5819 14.4721 26.7563 14.6007 26.8849C14.7293 27.0135 14.9038 27.0858 15.0856 27.0858H17.1428C17.3246 27.0858 17.499 27.0135 17.6276 26.8849C17.7562 26.7563 17.8285 26.5819 17.8285 26.4001Z" fill="#23CEC9"/>
<path d="M17.8285 30.5143C17.8285 30.3325 17.7562 30.1581 17.6276 30.0295C17.499 29.9009 17.3246 29.8286 17.1428 29.8286H15.0856C14.9038 29.8286 14.7293 29.9009 14.6007 30.0295C14.4721 30.1581 14.3999 30.3325 14.3999 30.5143C14.3999 30.6962 14.4721 30.8706 14.6007 30.9992C14.7293 31.1278 14.9038 31.2 15.0856 31.2H17.1428C17.3246 31.2 17.499 31.1278 17.6276 30.9992C17.7562 30.8706 17.8285 30.6962 17.8285 30.5143Z" fill="#23CEC9"/>
</svg>
