<svg width="48" height="48" viewBox="0 0 48 48" fill="none" xmlns="http://www.w3.org/2000/svg">
<circle cx="24" cy="24" r="24" fill="#F7EBF9"/>
<path d="M30.8571 24.4283C30.8571 24.3374 30.821 24.2502 30.7567 24.1859C30.6924 24.1216 30.6052 24.0854 30.5143 24.0854H17.4857C17.3947 24.0854 17.3075 24.1216 17.2432 24.1859C17.1789 24.2502 17.1428 24.3374 17.1428 24.4283V30.9426H30.8571V24.4283ZM24 28.8854C23.6362 28.8854 23.2874 28.741 23.0302 28.4838C22.773 28.2266 22.6285 27.8777 22.6285 27.514C22.6285 27.1503 22.773 26.8015 23.0302 26.5443C23.2874 26.2871 23.6362 26.1426 24 26.1426V26.8283C23.8643 26.8283 23.7318 26.8685 23.619 26.9439C23.5062 27.0192 23.4183 27.1263 23.3664 27.2516C23.3145 27.3769 23.301 27.5148 23.3274 27.6478C23.3539 27.7808 23.4192 27.903 23.5151 27.9989C23.611 28.0948 23.7332 28.1601 23.8662 28.1866C23.9992 28.213 24.1371 28.1994 24.2624 28.1475C24.3877 28.0956 24.4948 28.0077 24.5701 27.895C24.6455 27.7822 24.6857 27.6496 24.6857 27.514H25.3714C25.3714 27.8777 25.2269 28.2266 24.9697 28.4838C24.7125 28.741 24.3637 28.8854 24 28.8854Z" fill="#B84DC5"/>
<path d="M24.0925 17.2146C24.0321 17.2329 23.9677 17.2329 23.9073 17.2146L21.1473 16.426L20.9587 17.914H27.041L26.8525 16.426L24.0925 17.2146Z" fill="#B84DC5"/>
<path d="M15.8329 32.3142C15.793 32.2043 15.7722 32.0883 15.7712 31.9713V31.6285C15.7718 31.4468 15.8442 31.2727 15.9727 31.1442C16.1011 31.0157 16.2752 30.9433 16.4569 30.9428V29.9485C16.2067 29.9997 15.971 30.1062 15.7671 30.2602C15.5633 30.4141 15.3965 30.6117 15.2788 30.8385C15.1612 31.0653 15.0957 31.3154 15.0871 31.5708C15.0786 31.8261 15.1273 32.0801 15.2295 32.3142H15.8329Z" fill="#B84DC5"/>
<path d="M14.3999 33H33.5999V33.6857H14.3999V33Z" fill="#B84DC5"/>
<path d="M32.2284 31.6285V31.9713C32.2275 32.0883 32.2066 32.2043 32.1667 32.3142H32.7702C32.8641 32.0977 32.9131 31.8644 32.9142 31.6285C32.9131 31.2336 32.7763 30.851 32.5266 30.5451C32.2768 30.2392 31.9294 30.0285 31.5427 29.9485V30.9428C31.7244 30.9433 31.8985 31.0157 32.027 31.1442C32.1555 31.2727 32.2279 31.4468 32.2284 31.6285Z" fill="#B84DC5"/>
<path d="M32.2284 27.1712C32.2279 26.9586 32.1617 26.7513 32.039 26.5777C31.9163 26.404 31.743 26.2725 31.5427 26.2009V29.2558C31.7803 29.2898 32.0114 29.3592 32.2284 29.4615V27.1712Z" fill="#B84DC5"/>
<path d="M16.457 26.2009C16.2567 26.2725 16.0834 26.404 15.9607 26.5777C15.838 26.7513 15.7718 26.9586 15.7712 27.1712V29.4615C15.9883 29.3592 16.2194 29.2898 16.457 29.2558V26.2009Z" fill="#B84DC5"/>
<path d="M16.457 31.9713C16.457 32.0622 16.4932 32.1494 16.5575 32.2137C16.6218 32.278 16.709 32.3141 16.7999 32.3141H31.1999C31.2908 32.3141 31.378 32.278 31.4423 32.2137C31.5066 32.1494 31.5427 32.0622 31.5427 31.9713V31.6284H16.457V31.9713Z" fill="#B84DC5"/>
<path d="M22.0697 23.3996H25.9268C26.0168 23.333 26.1017 23.2597 26.1805 23.1802C26.468 22.8946 26.696 22.5548 26.8514 22.1805C27.0068 21.8062 27.0864 21.4049 27.0857 20.9996V20.3139C27.2675 20.3139 27.4419 20.2417 27.5705 20.1131C27.6991 19.9845 27.7714 19.81 27.7714 19.6282C27.7714 19.4463 27.6991 19.2719 27.5705 19.1433C27.4419 19.0147 27.2675 18.9425 27.0857 18.9425V18.5996H20.9142V18.9425C20.7324 18.9425 20.558 19.0147 20.4294 19.1433C20.3008 19.2719 20.2285 19.4463 20.2285 19.6282C20.2285 19.81 20.3008 19.9845 20.4294 20.1131C20.558 20.2417 20.7324 20.3139 20.9142 20.3139V20.9996C20.9163 21.4604 21.0211 21.9149 21.2209 22.3301C21.4208 22.7452 21.7108 23.1106 22.0697 23.3996ZM25.0285 19.971C25.0285 19.8801 25.0646 19.7929 25.1289 19.7286C25.1932 19.6643 25.2804 19.6282 25.3714 19.6282C25.4623 19.6282 25.5495 19.6643 25.6138 19.7286C25.6781 19.7929 25.7142 19.8801 25.7142 19.971V20.6568C25.7142 20.7477 25.6781 20.8349 25.6138 20.8992C25.5495 20.9635 25.4623 20.9996 25.3714 20.9996C25.2804 20.9996 25.1932 20.9635 25.1289 20.8992C25.0646 20.8349 25.0285 20.7477 25.0285 20.6568V19.971ZM22.2857 19.971C22.2857 19.8801 22.3218 19.7929 22.3861 19.7286C22.4504 19.6643 22.5376 19.6282 22.6285 19.6282C22.7194 19.6282 22.8067 19.6643 22.871 19.7286C22.9353 19.7929 22.9714 19.8801 22.9714 19.971V20.6568C22.9714 20.7477 22.9353 20.8349 22.871 20.8992C22.8067 20.9635 22.7194 20.9996 22.6285 20.9996C22.5376 20.9996 22.4504 20.9635 22.3861 20.8992C22.3218 20.8349 22.2857 20.7477 22.2857 20.6568V19.971ZM22.9714 22.0282C22.9714 22.1136 23.3362 22.371 23.9999 22.371C24.6637 22.371 25.0285 22.1136 25.0285 22.0282H25.7142C25.7142 22.6145 24.9774 23.0568 23.9999 23.0568C23.0225 23.0568 22.2857 22.6145 22.2857 22.0282H22.9714Z" fill="#B84DC5"/>
<path d="M27.4284 15.6855V18.2569H28.1141V15.5141L23.9998 13.7998L19.8855 15.5141L23.9998 16.5427L27.4284 15.6855Z" fill="#B84DC5"/>
</svg>
