<svg width="24" height="20" viewBox="0 0 24 20" fill="none" xmlns="http://www.w3.org/2000/svg">
<path d="M23.9927 0.912641C23.9929 0.60093 23.7374 0.348048 23.4218 0.347773C23.3192 0.347704 23.2185 0.374914 23.1302 0.426579C22.326 0.900035 21.4525 1.2477 20.5405 1.45712C19.5447 0.517371 18.2191 -0.00485689 16.8418 3.40469e-05C13.8611 0.00368507 11.4458 2.39012 11.4427 5.3346C11.4427 5.4867 11.4494 5.64101 11.4639 5.79641C8.01022 5.43359 4.84136 3.73774 2.64732 1.07797C2.44697 0.836522 2.08637 0.801252 1.84196 0.999163C1.78854 1.04242 1.74349 1.09491 1.70897 1.15402C1.23541 1.97074 0.986526 2.89561 0.987084 3.8368C0.98555 4.86989 1.28792 5.88114 1.85737 6.7476C1.83505 6.73547 1.81169 6.72335 1.78931 6.71012C1.60695 6.62222 1.39119 6.63566 1.22139 6.74539C1.04468 6.85871 0.93834 7.05304 0.939107 7.26121C0.934365 7.39465 0.942594 7.52829 0.963653 7.66013C1.07307 9.1673 1.82898 10.5565 3.04117 11.4782C2.93539 11.5085 2.84104 11.5691 2.77005 11.6523C2.64062 11.8006 2.59836 12.0047 2.65847 12.1913C3.1941 13.841 4.51103 15.1287 6.18639 15.6411C4.50078 16.5733 2.55938 16.9537 0.641133 16.7279C0.327817 16.6899 0.0426747 16.9101 0.00425113 17.2196C-0.0223873 17.4345 0.0776811 17.6455 0.261849 17.7628C2.55736 19.2231 5.23013 19.9996 7.9605 19.9991C14.3299 20.0689 19.95 15.8975 21.6552 9.83481C22.0424 8.55097 22.24 7.21871 22.2421 5.87908C22.2421 5.74351 22.2421 5.60243 22.2387 5.45914C23.4404 4.25212 24.0764 2.6036 23.9927 0.912641ZM21.2234 4.90034C21.1296 5.0098 21.0817 5.1506 21.0895 5.29382C21.0995 5.49331 21.0995 5.69171 21.0995 5.87908C21.0972 7.11077 20.9154 8.33577 20.5595 9.51628C19.042 15.1286 13.8399 18.991 7.9605 18.8705C6.21715 18.8711 4.49136 18.5268 2.88497 17.8576C4.77316 17.6507 6.56442 16.9235 8.05422 15.759C8.30241 15.5663 8.34543 15.2113 8.15032 14.9662C8.04432 14.8329 7.88323 14.7537 7.71169 14.7505C6.22475 14.7269 4.85921 13.9351 4.11341 12.6641C4.59792 12.6656 5.0802 12.5995 5.54602 12.4679C5.84909 12.382 6.02419 12.0696 5.93716 11.7702C5.87803 11.5667 5.70844 11.413 5.49805 11.3724C3.82589 11.042 2.51761 9.75311 2.1787 8.10218C2.66377 8.25738 3.16865 8.34383 3.67826 8.35899C3.93698 8.378 4.17289 8.21288 4.2406 7.96551C4.31766 7.72523 4.22435 7.4636 4.01187 7.32404C2.83141 6.54762 2.12438 5.23768 2.12961 3.83673C2.12926 3.3712 2.20611 2.90876 2.35722 2.46782C4.89052 5.1701 8.39208 6.7881 12.1155 6.97685C12.2962 6.99573 12.4735 6.91905 12.5819 6.77515C12.6968 6.63889 12.7406 6.45745 12.7002 6.28468C12.6246 5.97345 12.586 5.65464 12.5853 5.3346C12.5875 3.01306 14.4917 1.13149 16.8418 1.12867C18.0167 1.12536 19.1394 1.60777 19.9381 2.459C20.0728 2.60132 20.2724 2.6647 20.4659 2.62654C21.2767 2.46899 22.0649 2.21432 22.8133 1.86823C22.6189 3.01884 22.0626 4.07969 21.2234 4.90034Z" fill="#E14817"/>
</svg>
